<?xml version="1.0" standalone="no"?>
<!DOCTYPE svg PUBLIC "-//W3C//DTD SVG 20010904//EN"
 "http://www.w3.org/TR/2001/REC-SVG-20010904/DTD/svg10.dtd">
<svg version="1.0" xmlns="http://www.w3.org/2000/svg"
 width="776.000000pt" height="864.000000pt" viewBox="0 0 776.000000 864.000000"
 preserveAspectRatio="xMidYMid meet">

<g transform="translate(0.000000,864.000000) scale(0.100000,-0.100000)"
fill="#000000" stroke="none">
<path d="M164 6541 c-58 -26 -106 -72 -134 -128 l-25 -48 -3 -1054 c-3 -1192
-8 -1114 76 -1203 30 -32 62 -54 99 -68 54 -20 70 -20 702 -18 l646 3 54 30
c29 16 66 45 82 64 62 75 59 23 59 1180 l0 1056 -24 50 c-29 60 -76 107 -136
134 -44 20 -63 21 -700 21 -616 0 -657 -2 -696 -19z"/>
<path d="M6102 6534 c-56 -28 -90 -63 -125 -128 l-22 -41 -3 -1054 c-3 -1192
-8 -1114 76 -1203 30 -32 62 -54 98 -68 53 -19 76 -20 683 -20 697 0 692 0
768 65 23 20 54 61 70 93 l28 57 0 1050 c0 1006 -1 1052 -19 1099 -25 65 -79
124 -141 152 l-50 24 -656 0 -655 0 -52 -26z"/>
<path d="M3132 4871 c-66 -23 -133 -86 -162 -152 -20 -48 -20 -55 -18 -1116
l3 -1068 27 -45 c35 -60 72 -94 133 -122 l50 -23 640 0 c604 0 643 1 689 19
60 23 120 76 149 130 l22 41 3 1069 2 1068 -23 52 c-29 62 -77 111 -137 140
-44 21 -56 21 -685 23 -601 3 -643 2 -693 -16z"/>
<path d="M350 1815 l0 -1805 515 0 515 0 -2 1803 -3 1802 -512 3 -513 2 0
-1805z"/>
<path d="M6300 1815 l0 -1805 515 0 515 0 -2 1803 -3 1802 -512 3 -513 2 0
-1805z"/>
<path d="M3320 980 l0 -970 515 0 515 0 0 970 0 970 -515 0 -515 0 0 -970z"/>
</g>
</svg>
